<svg width="18" height="20" viewBox="0 0 18 20" fill="none" xmlns="http://www.w3.org/2000/svg">
<path d="M4 10C4 9.44771 4.44772 9 5 9C5.55228 9 6 9.44771 6 10C6 10.5523 5.55228 11 5 11C4.44772 11 4 10.5523 4 10ZM18 4V18C18 19.1 17.1 20 16 20H2C1.46957 20 0.960859 19.7893 0.585786 19.4142C0.210714 19.0391 0 18.5304 0 18L0.00999999 4C0.00999999 2.9 0.89 2 2 2H3V1C3 0.447715 3.44772 0 4 0C4.55228 0 5 0.447715 5 1V2H13V1C13 0.447715 13.4477 0 14 0C14.5523 0 15 0.447715 15 1V2H16C17.1 2 18 2.9 18 4ZM2 5C2 5.55228 2.44772 6 3 6H15C15.5523 6 16 5.55228 16 5C16 4.44772 15.5523 4 15 4H3C2.44772 4 2 4.44772 2 5ZM15 18C15.5523 18 16 17.5523 16 17V9C16 8.44772 15.5523 8 15 8H3C2.44772 8 2 8.44771 2 9V17C2 17.5523 2.44772 18 3 18H15ZM12 10C12 10.5523 12.4477 11 13 11C13.5523 11 14 10.5523 14 10C14 9.44771 13.5523 9 13 9C12.4477 9 12 9.44771 12 10ZM8 10C8 10.5523 8.44771 11 9 11C9.55229 11 10 10.5523 10 10C10 9.44771 9.55229 9 9 9C8.44771 9 8 9.44771 8 10Z" fill="white"/>
</svg>
