<?xml version="1.0" encoding="UTF-8"?>
<svg id="Layer_1" data-name="Layer 1" xmlns="http://www.w3.org/2000/svg" viewBox="0 0 159.53 42.66">
  <defs>
    <style>
      .cls-1 {
        fill: #221f20;
        stroke-width: 0px;
      }
    </style>
  </defs>
  <path class="cls-1" d="M19.25,16.16H3.09c-1.19,0-2.2-1.01-2.2-2.2,0-1.25,1.01-2.2,2.2-2.2h20.86c1.25,0,2.2.95,2.2,2.2,0,.59-.24,1.13-.71,1.66L6.89,37.67h17.05c1.25,0,2.2.95,2.2,2.2s-.95,2.2-2.2,2.2H2.26c-1.25,0-2.26-1.01-2.26-2.26,0-.71.36-1.19.71-1.6l18.54-22.04ZM29.11,26.92c0-8.79,6.77-15.75,15.69-15.75,4.34,0,7.96,1.66,10.28,3.8.54.48.89,1.13.89,1.84,0,.59-.18,1.13-.77,1.78l-10.58,12.66c-.48.53-1.01.77-1.66.77-1.31,0-2.26-.89-2.26-2.14,0-.53.12-1.07.53-1.49l9.27-10.93c-1.54-1.31-3.74-1.9-5.7-1.9-6.06,0-10.87,4.99-10.87,11.35s4.75,11.35,10.87,11.35c3.39,0,6.06-1.49,7.9-3.56.65-.59,1.19-1.07,2.02-1.07,1.37,0,2.38.95,2.38,2.26,0,.48-.3,1.13-.71,1.6-2.5,2.97-6.6,5.17-11.59,5.17-8.85,0-15.69-6.95-15.69-15.75ZM97.74,13.67c0-1.31,1.01-2.38,2.38-2.38s2.38,1.07,2.38,2.38v26.44c0,1.37-1.07,2.44-2.38,2.44s-2.38-1.07-2.38-2.44V13.67ZM107.36,13.96c0-1.25,1.01-2.2,2.2-2.2h3.15v-5.35c0-1.37,1.07-2.38,2.38-2.38s2.38,1.01,2.38,2.38v5.35h7.84c1.19,0,2.2.95,2.2,2.2s-1.01,2.2-2.2,2.2h-7.84v13.43c0,5.53,3.15,8.5,7.84,8.5,1.19,0,2.2,1.01,2.2,2.2,0,1.25-1.01,2.26-2.2,2.26-7.37,0-12.6-4.99-12.6-12.95v-13.43h-3.15c-1.19,0-2.2-1.01-2.2-2.2ZM133.44,2.38c0-1.31,1.01-2.38,2.38-2.38s2.38,1.07,2.38,2.38v12.48c1.9-2.02,4.93-3.68,8.85-3.68,6.95,0,12.48,5.11,12.48,13.73v15.21c0,1.37-1.07,2.44-2.38,2.44s-2.38-1.07-2.38-2.44v-15.33c0-6.12-3.68-9.21-8.32-9.21s-8.26,3.03-8.26,9.21v15.33c0,1.37-1.07,2.44-2.38,2.44s-2.38-1.07-2.38-2.44V2.38ZM81.98,12.2c.25.64.4,1.33.4,2.06,0,1.04-.3,2-.78,2.83,2.05,1.49,3.37,4.07,3.37,7.69v15.33c0,1.37,1.01,2.44,2.38,2.44s2.38-1.07,2.38-2.44v-15.21c0-6.36-3.15-10.81-7.74-12.7ZM70.97,14.26c0-.73.15-1.43.4-2.07-4.58,1.89-7.74,6.33-7.74,12.71v15.21c0,1.37,1.01,2.44,2.38,2.44s2.38-1.07,2.38-2.44v-15.33c0-3.63,1.32-6.2,3.36-7.69-.48-.84-.78-1.79-.78-2.83ZM76.65,10.56c-1.82,0-3.3,1.48-3.3,3.3s1.48,3.3,3.3,3.3,3.3-1.48,3.3-3.3-1.48-3.3-3.3-3.3Z"/>
</svg>